<svg xmlns="http://www.w3.org/2000/svg" xmlns:xlink="http://www.w3.org/1999/xlink" width="500" zoomAndPan="magnify" viewBox="0 0 375 374.999991" height="500" preserveAspectRatio="xMidYMid meet" version="1.0"><defs><clipPath id="eeb124f7ae"><path d="M 67 108 L 308 108 L 308 321.902344 L 67 321.902344 Z M 67 108 " clip-rule="nonzero"/></clipPath><clipPath id="97e95ca2b0"><path d="M 198.683594 114.941406 L 305.769531 302.367188 C 308.082031 306.410156 308.0625 311.375 305.726562 315.402344 C 303.390625 319.425781 299.089844 321.902344 294.433594 321.902344 L 80.609375 321.902344 C 75.953125 321.902344 71.652344 319.425781 69.316406 315.402344 C 66.976562 311.375 66.960938 306.410156 69.269531 302.367188 L 176.359375 114.941406 C 178.648438 110.933594 182.90625 108.460938 187.519531 108.460938 C 192.132812 108.460938 196.394531 110.933594 198.683594 114.941406 Z M 198.683594 114.941406 " clip-rule="nonzero"/></clipPath><clipPath id="3c19f3a032"><path d="M 67 108 L 307.714844 108 L 307.714844 321.902344 L 67 321.902344 Z M 67 108 " clip-rule="nonzero"/></clipPath><clipPath id="f90fa41ab9"><path d="M 198.679688 114.941406 L 305.765625 302.367188 C 308.074219 306.40625 308.058594 311.371094 305.722656 315.398438 C 303.386719 319.425781 299.082031 321.902344 294.429688 321.902344 L 80.609375 321.902344 C 75.953125 321.902344 71.652344 319.425781 69.3125 315.398438 C 66.976562 311.371094 66.960938 306.40625 69.269531 302.367188 L 176.355469 114.941406 C 178.644531 110.9375 182.90625 108.464844 187.519531 108.464844 C 192.132812 108.464844 196.390625 110.9375 198.679688 114.941406 Z M 198.679688 114.941406 " clip-rule="nonzero"/></clipPath><clipPath id="b9d92e0b52"><path d="M 67 118.015625 L 308 118.015625 L 308 332.128906 L 67 332.128906 Z M 67 118.015625 " clip-rule="nonzero"/></clipPath><clipPath id="2ccde314d0"><path d="M 198.65625 125.164062 L 305.742188 312.589844 C 308.050781 316.632812 308.035156 321.597656 305.699219 325.625 C 303.363281 329.648438 299.058594 332.128906 294.40625 332.128906 L 80.582031 332.128906 C 75.925781 332.128906 71.625 329.648438 69.285156 325.625 C 66.949219 321.597656 66.933594 316.632812 69.242188 312.589844 L 176.332031 125.164062 C 178.621094 121.15625 182.878906 118.683594 187.492188 118.683594 C 192.105469 118.683594 196.367188 121.15625 198.65625 125.164062 Z M 198.65625 125.164062 " clip-rule="nonzero"/></clipPath><clipPath id="4b580d387b"><path d="M 67 118 L 307.683594 118 L 307.683594 332.128906 L 67 332.128906 Z M 67 118 " clip-rule="nonzero"/></clipPath><clipPath id="eb87cd549a"><path d="M 198.652344 125.164062 L 305.738281 312.589844 C 308.046875 316.628906 308.03125 321.597656 305.695312 325.621094 C 303.359375 329.648438 299.054688 332.125 294.402344 332.125 L 80.582031 332.125 C 75.925781 332.125 71.621094 329.648438 69.285156 325.621094 C 66.949219 321.597656 66.933594 316.628906 69.242188 312.589844 L 176.328125 125.164062 C 178.617188 121.160156 182.878906 118.6875 187.492188 118.6875 C 192.105469 118.6875 196.363281 121.160156 198.652344 125.164062 Z M 198.652344 125.164062 " clip-rule="nonzero"/></clipPath><clipPath id="1e3f97c752"><path d="M 67 42.871094 L 308 42.871094 L 308 256.972656 L 67 256.972656 Z M 67 42.871094 " clip-rule="nonzero"/></clipPath><clipPath id="c705e69a38"><path d="M 198.648438 249.820312 L 305.742188 62.410156 C 308.050781 58.367188 308.035156 53.402344 305.699219 49.375 C 303.363281 45.351562 299.058594 42.871094 294.40625 42.871094 L 80.566406 42.871094 C 75.910156 42.871094 71.609375 45.351562 69.273438 49.375 C 66.9375 53.402344 66.921875 58.367188 69.230469 62.410156 L 176.324219 249.820312 C 178.613281 253.828125 182.871094 256.300781 187.484375 256.300781 C 192.101562 256.300781 196.359375 253.828125 198.648438 249.820312 Z M 198.648438 249.820312 " clip-rule="nonzero"/></clipPath><clipPath id="df67b34bb9"><path d="M 67 42.871094 L 308 42.871094 L 308 257 L 67 257 Z M 67 42.871094 " clip-rule="nonzero"/></clipPath><clipPath id="9cbdb913cb"><path d="M 198.644531 249.816406 L 305.734375 62.40625 C 308.042969 58.367188 308.027344 53.402344 305.691406 49.375 C 303.355469 45.351562 299.054688 42.871094 294.398438 42.871094 L 80.566406 42.871094 C 75.914062 42.871094 71.609375 45.351562 69.273438 49.375 C 66.9375 53.402344 66.921875 58.367188 69.230469 62.40625 L 176.320312 249.816406 C 178.609375 253.820312 182.867188 256.292969 187.484375 256.292969 C 192.097656 256.292969 196.355469 253.820312 198.644531 249.816406 Z M 198.644531 249.816406 " clip-rule="nonzero"/></clipPath><clipPath id="58b9deedd3"><path d="M 67 68.886719 L 308 68.886719 L 308 283 L 67 283 Z M 67 68.886719 " clip-rule="nonzero"/></clipPath><clipPath id="69311b8828"><path d="M 198.644531 275.828125 L 305.734375 88.417969 C 308.042969 84.378906 308.027344 79.414062 305.691406 75.386719 C 303.355469 71.363281 299.054688 68.886719 294.398438 68.886719 L 80.566406 68.886719 C 75.914062 68.886719 71.609375 71.363281 69.273438 75.386719 C 66.9375 79.414062 66.921875 84.378906 69.230469 88.417969 L 176.320312 275.828125 C 178.609375 279.832031 182.867188 282.304688 187.484375 282.304688 C 192.097656 282.304688 196.355469 279.832031 198.644531 275.828125 Z M 198.644531 275.828125 " clip-rule="nonzero"/></clipPath></defs><g clip-path="url(#eeb124f7ae)"><g clip-path="url(#97e95ca2b0)"><path fill="#ffffff" d="M 58.109375 95.402344 L 316.933594 95.402344 L 316.933594 321.902344 L 58.109375 321.902344 Z M 58.109375 95.402344 " fill-opacity="1" fill-rule="nonzero"/></g></g><g clip-path="url(#3c19f3a032)"><g clip-path="url(#f90fa41ab9)"><path stroke-linecap="butt" transform="matrix(0.75, 0, 0, 0.75, 58.108441, 95.406169)" fill="none" stroke-linejoin="miter" d="M 187.428353 26.046986 L 330.209622 275.948061 C 333.287747 281.333478 333.266914 287.95327 330.15233 293.323063 C 327.037746 298.692855 321.298162 301.994939 315.095037 301.994939 L 30.00125 301.994939 C 23.792916 301.994939 18.05854 298.692855 14.938748 293.323063 C 11.824164 287.95327 11.803331 281.333478 14.881456 275.948061 L 157.662725 26.046986 C 160.714808 20.708444 166.397101 17.411569 172.548143 17.411569 C 178.699186 17.411569 184.37627 20.708444 187.428353 26.046986 Z M 187.428353 26.046986 " stroke="#ffffff" stroke-width="40" stroke-opacity="1" stroke-miterlimit="4"/></g></g><g clip-path="url(#b9d92e0b52)"><g clip-path="url(#2ccde314d0)"><path fill="#ffffff" d="M 58.082031 105.628906 L 316.90625 105.628906 L 316.90625 332.128906 L 58.082031 332.128906 Z M 58.082031 105.628906 " fill-opacity="1" fill-rule="nonzero"/></g></g><g clip-path="url(#4b580d387b)"><g clip-path="url(#eb87cd549a)"><path stroke-linecap="butt" transform="matrix(0.75, 0, 0, 0.75, 58.080517, 105.629151)" fill="none" stroke-linejoin="miter" d="M 187.429127 26.046552 L 330.210396 275.947627 C 333.288521 281.333044 333.267688 287.958045 330.153104 293.322629 C 327.03852 298.692421 321.298936 301.994505 315.09581 301.994505 L 30.002023 301.994505 C 23.793689 301.994505 18.054105 298.692421 14.939521 293.322629 C 11.824938 287.958045 11.804104 281.333044 14.88223 275.947627 L 157.663498 26.046552 C 160.715582 20.70801 166.397874 17.411135 172.548917 17.411135 C 178.699959 17.411135 184.377043 20.70801 187.429127 26.046552 Z M 187.429127 26.046552 " stroke="#004aad" stroke-width="40" stroke-opacity="1" stroke-miterlimit="4"/></g></g><g clip-path="url(#1e3f97c752)"><g clip-path="url(#c705e69a38)"><path fill="#ffffff" d="M 58.066406 42.871094 L 316.90625 42.871094 L 316.90625 269.355469 L 58.066406 269.355469 Z M 58.066406 42.871094 " fill-opacity="1" fill-rule="nonzero"/></g></g><g clip-path="url(#df67b34bb9)"><g clip-path="url(#9cbdb913cb)"><path stroke-linecap="butt" transform="matrix(0.75, 0, 0, 0.75, 58.067396, 42.87288)" fill="none" stroke-linejoin="miter" d="M 187.436181 275.924703 L 330.222639 26.044494 C 333.300764 20.659077 333.279931 14.039286 330.165348 8.669494 C 327.050764 3.304911 321.316389 -0.00238111 315.108056 -0.00238111 L 29.998681 -0.00238111 C 23.795556 -0.00238111 18.055972 3.304911 14.941389 8.669494 C 11.826806 14.039286 11.805972 20.659077 14.884097 26.044494 L 157.670556 275.924703 C 160.722639 281.263244 166.399722 284.560119 172.555972 284.560119 C 178.707014 284.560119 184.384097 281.263244 187.436181 275.924703 Z M 187.436181 275.924703 " stroke="#004aad" stroke-width="40" stroke-opacity="1" stroke-miterlimit="4"/></g></g><g clip-path="url(#58b9deedd3)"><g clip-path="url(#69311b8828)"><path stroke-linecap="butt" transform="matrix(0.75, 0, 0, 0.75, 58.067396, 68.885071)" fill="none" stroke-linejoin="miter" d="M 187.436181 275.924072 L 330.222639 26.043863 C 333.300764 20.658446 333.279931 14.038655 330.165348 8.668863 C 327.050764 3.30428 321.316389 0.00219636 315.108056 0.00219636 L 29.998681 0.00219636 C 23.795556 0.00219636 18.055972 3.30428 14.941389 8.668863 C 11.826806 14.038655 11.805972 20.658446 14.884097 26.043863 L 157.670556 275.924072 C 160.722639 281.262614 166.399722 284.559489 172.555972 284.559489 C 178.707014 284.559489 184.384097 281.262614 187.436181 275.924072 Z M 187.436181 275.924072 " stroke="#ffffff" stroke-width="40" stroke-opacity="1" stroke-miterlimit="4"/></g></g></svg>