<svg xmlns="http://www.w3.org/2000/svg" xmlns:xlink="http://www.w3.org/1999/xlink" width="1080" zoomAndPan="magnify" viewBox="0 0 810 809.999993" height="1080" preserveAspectRatio="xMidYMid meet" version="1.0"><defs><clipPath id="173eadd100"><path d="M 196.019531 81 L 613.769531 81 L 613.769531 729 L 196.019531 729 Z M 196.019531 81 " clip-rule="nonzero"/></clipPath></defs><g clip-path="url(#173eadd100)"><path fill="#ffd700" d="M 421.871094 405.589844 C 423.167969 419.886719 437.046875 429.929688 456.238281 443.820312 C 497.832031 473.917969 566.890625 523.90625 569.550781 666.042969 L 240.40625 666.042969 C 243.0625 522.523438 312.796875 472.300781 354.796875 442.058594 C 373.3125 428.71875 386.6875 419.089844 388.027344 405.65625 C 389.511719 390.753906 374.921875 379.660156 354.730469 364.300781 C 312.804688 332.40625 243.214844 279.460938 240.414062 143.746094 L 569.539062 143.746094 C 566.734375 278.328125 497.785156 330.929688 456.238281 362.601562 C 435.460938 378.457031 420.445312 389.902344 421.871094 405.589844 Z M 596.945312 684.035156 L 596.945312 710.597656 C 596.945312 711.121094 596.511719 711.546875 595.992188 711.546875 L 213.964844 711.546875 C 213.4375 711.546875 213.011719 711.121094 213.011719 710.597656 L 213.011719 684.035156 C 213.011719 683.507812 213.4375 683.082031 213.964844 683.082031 L 595.992188 683.082031 C 596.511719 683.082031 596.945312 683.507812 596.945312 684.035156 Z M 213.011719 125.765625 L 213.011719 99.203125 C 213.011719 98.675781 213.4375 98.25 213.964844 98.25 L 595.992188 98.25 C 596.511719 98.25 596.945312 98.675781 596.945312 99.203125 L 596.945312 125.765625 C 596.945312 126.28125 596.511719 126.707031 595.992188 126.707031 L 213.964844 126.707031 C 213.4375 126.707031 213.011719 126.28125 213.011719 125.765625 Z M 465.542969 374.800781 C 509.34375 341.398438 582.070312 285.921875 584.871094 143.746094 L 595.992188 143.746094 C 605.910156 143.746094 613.984375 135.679688 613.984375 125.765625 L 613.984375 99.203125 C 613.984375 89.277344 605.910156 81.210938 595.992188 81.210938 L 213.964844 81.210938 C 204.046875 81.210938 195.972656 89.277344 195.972656 99.203125 L 195.972656 125.765625 C 195.972656 135.679688 204.046875 143.746094 213.964844 143.746094 L 225.113281 143.746094 C 226.355469 204.8125 240.992188 257.144531 268.746094 299.375 C 293.417969 336.917969 323.488281 359.800781 345.449219 376.507812 C 360.453125 387.914062 373.40625 397.769531 372.773438 404.140625 C 372.121094 410.683594 359.933594 419.453125 345.832031 429.609375 C 323.8125 445.472656 293.65625 467.1875 268.867188 504.914062 C 240.972656 547.363281 226.289062 601.558594 225.105469 666.042969 L 213.964844 666.042969 C 204.046875 666.042969 195.972656 674.117188 195.972656 684.035156 L 195.972656 710.597656 C 195.972656 720.519531 204.046875 728.585938 213.964844 728.585938 L 595.992188 728.585938 C 605.910156 728.585938 613.984375 720.519531 613.984375 710.597656 L 613.984375 684.035156 C 613.984375 674.117188 605.910156 666.042969 595.992188 666.042969 L 584.886719 666.042969 C 582.214844 516.074219 509.191406 463.207031 465.230469 431.402344 C 450.515625 420.753906 437.8125 411.554688 437.144531 404.207031 C 436.484375 396.957031 449.949219 386.6875 465.542969 374.800781 " fill-opacity="1" fill-rule="nonzero"/></g><path fill="#ffd700" d="M 404.933594 394.089844 C 400.578125 376.6875 384.085938 364.148438 365.558594 350.042969 C 345.984375 335.160156 319.179688 314.769531 297.84375 283.082031 C 295.433594 279.496094 293.097656 275.78125 290.863281 271.945312 L 518.75 271.945312 C 516.734375 275.359375 514.636719 278.6875 512.472656 281.902344 C 491.335938 313.339844 464.777344 333.589844 445.390625 348.371094 C 426.261719 362.960938 409.265625 375.921875 404.933594 394.089844 Z M 445.742188 458.324219 C 466.136719 473.078125 491.515625 491.441406 512.539062 522.78125 C 535.261719 556.660156 547.867188 598.015625 550.976562 649 L 258.976562 649 C 262.082031 597.425781 274.816406 555.632812 297.789062 521.457031 C 319.027344 489.871094 344.660156 471.414062 365.25 456.578125 C 384.09375 443.015625 400.585938 431.136719 404.933594 412.839844 C 409.292969 431.941406 426.304688 444.253906 445.742188 458.324219 Z M 519.542969 286.65625 C 524.546875 279.214844 529.050781 271.46875 533.117188 263.429688 L 276.578125 263.429688 C 280.8125 271.886719 285.515625 280.035156 290.777344 287.839844 C 312.898438 320.691406 340.351562 341.578125 360.398438 356.824219 C 382.175781 373.390625 399.367188 386.46875 397.363281 406.589844 C 395.601562 424.226562 380.011719 435.453125 360.273438 449.664062 C 339.128906 464.898438 312.8125 483.847656 290.722656 516.707031 C 265.570312 554.117188 252.226562 600.246094 250.023438 657.519531 L 559.925781 657.519531 C 557.730469 600.847656 544.511719 555.148438 519.621094 518.042969 C 497.742188 485.429688 471.679688 466.574219 450.742188 451.421875 C 430.335938 436.652344 414.214844 424.984375 412.53125 406.441406 C 410.636719 385.589844 428.253906 372.152344 450.554688 355.148438 C 470.421875 340 497.617188 319.261719 519.542969 286.65625 " fill-opacity="1" fill-rule="nonzero"/><path fill="#ffd700" d="M 280.773438 255.808594 C 282.894531 254.796875 283.800781 252.253906 282.78125 250.128906 C 270.167969 223.707031 262.914062 192.597656 261.226562 157.65625 C 261.113281 155.308594 259.121094 153.496094 256.765625 153.609375 C 254.417969 153.722656 252.605469 155.71875 252.71875 158.070312 C 254.460938 194.144531 261.988281 226.355469 275.09375 253.804688 C 275.828125 255.335938 277.351562 256.226562 278.941406 256.226562 C 279.554688 256.226562 280.179688 256.09375 280.773438 255.808594 " fill-opacity="1" fill-rule="nonzero"/></svg>