<svg xmlns="http://www.w3.org/2000/svg" xmlns:xlink="http://www.w3.org/1999/xlink" width="500" zoomAndPan="magnify" viewBox="0 0 375 374.999991" height="500" preserveAspectRatio="xMidYMid meet" version="1.0"><defs><clipPath id="b79794e6f1"><path d="M 96 37.5 L 279 37.5 L 279 337.5 L 96 337.5 Z M 96 37.5 " clip-rule="nonzero"/></clipPath></defs><g clip-path="url(#b79794e6f1)"><path fill="#fdbb74" d="M 96.09375 321.09375 L 96.09375 323.4375 C 96.09375 331.171875 102.421875 337.5 110.15625 337.5 L 264.84375 337.5 C 272.578125 337.5 278.90625 331.171875 278.90625 323.4375 L 278.90625 321.09375 C 278.90625 313.359375 272.578125 307.03125 264.84375 307.03125 L 264.84375 264.375 C 264.84375 249.84375 255.46875 231.796875 243.984375 223.359375 L 199.21875 190.3125 L 199.21875 184.6875 L 243.984375 151.875 C 255.703125 143.203125 264.84375 125.15625 264.84375 110.859375 L 264.84375 67.96875 C 272.578125 67.96875 278.90625 61.640625 278.90625 53.90625 L 278.90625 51.5625 C 278.90625 43.828125 272.578125 37.5 264.84375 37.5 L 110.15625 37.5 C 102.421875 37.5 96.09375 43.828125 96.09375 51.5625 L 96.09375 53.90625 C 96.09375 61.640625 102.421875 67.96875 110.15625 67.96875 L 110.15625 110.625 C 110.15625 125.15625 119.296875 143.203125 131.015625 151.640625 L 175.78125 184.453125 L 175.78125 190.078125 L 131.015625 222.890625 C 119.296875 231.5625 110.15625 249.609375 110.15625 263.90625 L 110.15625 307.03125 C 102.421875 307.03125 96.09375 313.359375 96.09375 321.09375 Z M 119.53125 264.375 C 119.53125 252.890625 127.265625 237.65625 136.640625 230.859375 L 183.28125 196.640625 C 184.453125 195.703125 185.15625 194.296875 185.15625 192.890625 L 185.15625 182.578125 C 185.15625 181.171875 184.453125 179.765625 183.28125 178.828125 L 136.640625 144.375 C 127.5 137.578125 119.53125 122.34375 119.53125 110.859375 L 119.53125 67.96875 L 255.46875 67.96875 L 255.46875 110.625 C 255.46875 122.109375 247.5 137.34375 238.359375 144.140625 L 191.71875 178.59375 C 190.546875 179.53125 189.84375 180.9375 189.84375 182.34375 L 189.84375 192.65625 C 189.84375 194.0625 190.546875 195.46875 191.71875 196.40625 L 238.359375 230.625 C 247.5 237.421875 255.46875 252.890625 255.46875 264.140625 L 255.46875 307.03125 L 243.75 307.03125 L 243.75 270.234375 C 243.75 259.453125 236.953125 246.328125 228.515625 239.765625 L 190.546875 211.640625 C 188.90625 210.46875 186.5625 210.46875 184.921875 211.640625 L 146.71875 239.765625 C 138.046875 246.09375 131.25 259.453125 131.25 270 L 131.25 307.03125 L 119.53125 307.03125 Z M 119.53125 264.375 " fill-opacity="1" fill-rule="nonzero"/></g><path fill="#fdbb74" d="M 190.3125 163.125 L 228.28125 135 C 229.921875 133.828125 230.625 131.71875 229.921875 129.84375 C 229.21875 127.96875 227.578125 126.5625 225.46875 126.5625 L 149.0625 126.5625 C 146.953125 126.5625 145.3125 127.96875 144.609375 129.84375 C 143.90625 131.71875 144.609375 133.828125 146.25 135 L 184.453125 163.125 C 185.390625 163.828125 186.328125 164.0625 187.265625 164.0625 C 188.671875 164.0625 189.609375 163.828125 190.3125 163.125 Z M 190.3125 163.125 " fill-opacity="1" fill-rule="nonzero"/></svg>