<svg xmlns="http://www.w3.org/2000/svg" xmlns:xlink="http://www.w3.org/1999/xlink" width="500" zoomAndPan="magnify" viewBox="0 0 375 374.999991" height="500" preserveAspectRatio="xMidYMid meet" version="1.0"><defs><g/><clipPath id="bd892315c8"><path d="M 50.175781 50.175781 L 324.675781 50.175781 L 324.675781 324.675781 L 50.175781 324.675781 Z M 50.175781 50.175781 " clip-rule="nonzero"/></clipPath><clipPath id="110c38c591"><path d="M 187.496094 50.175781 C 111.65625 50.175781 50.175781 111.65625 50.175781 187.496094 C 50.175781 263.335938 111.65625 324.816406 187.496094 324.816406 C 263.335938 324.816406 324.816406 263.335938 324.816406 187.496094 C 324.816406 111.65625 263.335938 50.175781 187.496094 50.175781 Z M 187.496094 50.175781 " clip-rule="nonzero"/></clipPath></defs><g clip-path="url(#bd892315c8)"><g clip-path="url(#110c38c591)"><path stroke-linecap="butt" transform="matrix(0.75, 0, 0, 0.75, 50.174334, 50.17433)" fill="none" stroke-linejoin="miter" d="M 183.095692 0.00193566 C 81.975893 0.00193566 0.00192966 81.975899 0.00192966 183.095698 C 0.00192966 284.215496 81.975893 366.18946 183.095692 366.18946 C 284.21549 366.18946 366.189454 284.215496 366.189454 183.095698 C 366.189454 81.975899 284.21549 0.00193566 183.095692 0.00193566 Z M 183.095692 0.00193566 " stroke="#004aad" stroke-width="8" stroke-opacity="1" stroke-miterlimit="4"/></g></g><g fill="#004aad" fill-opacity="1"><g transform="translate(101.627327, 221.249985)"><g><path d="M 35.734375 -67.5 L 35.734375 -64.890625 L 20.34375 -64.890625 L 20.34375 0 L 17.375 0 L 17.375 -64.890625 L 1.796875 -64.890625 L 1.796875 -67.5 Z M 35.734375 -67.5 "/></g></g></g><g fill="#004aad" fill-opacity="1"><g transform="translate(139.157285, 221.249985)"><g><path d="M 6.75 -67.5 L 9.625 -67.5 L 9.625 -42.75 L 38.15625 -67.5 L 41.765625 -67.5 L 10.890625 -40.59375 L 49.6875 0 L 45.71875 0 L 9.71875 -37.53125 L 9.71875 0 L 6.75 0 Z M 6.75 -67.5 "/></g></g></g><g fill="#004aad" fill-opacity="1"><g transform="translate(190.637235, 221.249985)"><g><path d="M 75.953125 -67.5 L 75.953125 0 L 72.984375 0 L 72.984375 -63.984375 L 41.125 1.265625 L 9.453125 -63.984375 L 9.453125 0 L 6.75 0 L 6.75 -67.5 L 11.0625 -67.5 L 41.40625 -5.21875 L 71.8125 -67.5 Z M 75.953125 -67.5 "/></g></g></g></svg>